<svg version="1" xmlns="http://www.w3.org/2000/svg" width="400" height="400" viewBox="0 0 300.000000 300.000000"><path d="M135.5 1.7c-22.9 3-43.7 10.2-62.6 21.4-3 1.7-6.1 3.2-6.9 3.2-3.2 0-20.6 16.5-31.1 29.7C25.7 67.4 11 91.8 11 95.5c0 .8-.4 1.5-.8 1.7-1.2.5-7.1 20.4-8.7 29.3-2.6 14.5-.5 43.1 4.4 61.9 6.6 24.7 19.4 46.4 39.7 67.2 4.3 4.4 9.3 9.8 11.1 12 2.5 3 3.2 3.5 3.3 2 0-1.9.1-1.9 2.2.1 2.7 2.4 9.9 7 11.2 7.1.5 0 1.2.5 1.5 1 .9 1.3 20.4 10.6 27.6 13.1 7.7 2.6 21.8 5.9 29.2 6.9 10.5 1.3 35.2.7 44.3-1.1 12.2-2.4 12.1-2.4 16.8-4.1 2.3-.8 4.2-1.3 4.2-1 0 .2.9 0 2.1-.6 1.1-.6 2.8-1.3 3.8-1.5 1.8-.3 20.8-9.4 24.6-11.8 22.5-13.7 42.6-34.9 55-58.1 3.3-6.2 10.3-23 11-26.6.2-.8.4-1.5.6-1.5.1 0 .3-.9.5-2s.8-4 1.4-6.5c.7-2.5 1.4-5.4 1.6-6.5 2.5-11.9 2.5-43 0-53-.3-1.1-1.2-5.2-2.2-9-.9-3.9-2.2-8.4-2.9-10.2-.8-1.7-1-3.3-.6-3.5.8-.3-1.9-6.4-12.1-27.2-10.6-21.8-23.7-35.3-46.5-48.2-11.5-6.6-27.6-14.4-29.5-14.4-.8 0-1.9-.5-2.6-1.2-.7-.7-1.2-.9-1.2-.5s-.9.3-2.1-.3c-1.1-.7-3.2-1.4-4.7-1.6-1.4-.3-3-.8-3.6-1.2-.6-.3-2-.7-3.1-.8-1.1-.1-5.6-1-10-1.9-7.6-1.6-33.9-2.8-41-1.8z"/></svg>